<?xml version="1.0" encoding="UTF-8" standalone="no"?>
<!-- Created with Inkscape (http://www.inkscape.org/) -->

<svg
   xmlns:dc="http://purl.org/dc/elements/1.1/"
   xmlns:cc="http://creativecommons.org/ns#"
   xmlns:rdf="http://www.w3.org/1999/02/22-rdf-syntax-ns#"
   xmlns:svg="http://www.w3.org/2000/svg"
   xmlns="http://www.w3.org/2000/svg"
   xmlns:sodipodi="http://sodipodi.sourceforge.net/DTD/sodipodi-0.dtd"
   xmlns:inkscape="http://www.inkscape.org/namespaces/inkscape"
   width="1513.3363"
   height="800"
   id="svg2"
   sodipodi:version="0.32"
   inkscape:version="0.48.4 r9939"
   sodipodi:docname="Exit by Rones.svg"
   inkscape:output_extension="org.inkscape.output.svg.inkscape"
   version="1.1">
  <defs
     id="defs4">
    <inkscape:perspective
       sodipodi:type="inkscape:persp3d"
       inkscape:vp_x="0 : 526.18109 : 1"
       inkscape:vp_y="0 : 1000 : 0"
       inkscape:vp_z="744.09448 : 526.18109 : 1"
       inkscape:persp3d-origin="372.04724 : 350.78739 : 1"
       id="perspective10" />
    <inkscape:perspective
       id="perspective2390"
       inkscape:persp3d-origin="372.04724 : 350.78739 : 1"
       inkscape:vp_z="744.09448 : 526.18109 : 1"
       inkscape:vp_y="0 : 1000 : 0"
       inkscape:vp_x="0 : 526.18109 : 1"
       sodipodi:type="inkscape:persp3d" />
  </defs>
  <sodipodi:namedview
     id="base"
     pagecolor="#ffffff"
     bordercolor="#666666"
     borderopacity="1.0"
     gridtolerance="10000"
     guidetolerance="10"
     objecttolerance="10"
     inkscape:pageopacity="0.0"
     inkscape:pageshadow="2"
     inkscape:zoom="0.35000001"
     inkscape:cx="283.46436"
     inkscape:cy="416.55622"
     inkscape:document-units="px"
     inkscape:current-layer="layer1"
     showgrid="false"
     inkscape:window-width="1280"
     inkscape:window-height="904"
     inkscape:window-x="-4"
     inkscape:window-y="-4"
     fit-margin-top="0"
     fit-margin-left="0"
     fit-margin-right="0"
     fit-margin-bottom="0"
     inkscape:window-maximized="0">
    <inkscape:grid
       type="xygrid"
       id="grid2401"
       empspacing="5"
       visible="true"
       enabled="true"
       snapvisiblegridlinesonly="true"
       originx="-47.982237px"
       originy="-555.3766px" />
  </sodipodi:namedview>
  <metadata
     id="metadata7">
    <rdf:RDF>
      <cc:Work
         rdf:about="">
        <dc:format>image/svg+xml</dc:format>
        <dc:type
           rdf:resource="http://purl.org/dc/dcmitype/StillImage" />
      </cc:Work>
    </rdf:RDF>
  </metadata>
  <g
     inkscape:label="Layer 1"
     inkscape:groupmode="layer"
     id="layer1"
     transform="translate(-47.982237,303.01443)">
    <g
       id="g3185"
       transform="matrix(1.5557275,0,0,1.5557275,966.53687,-94.085567)">
      <rect
         ry="0"
         rx="0"
         y="-134.29657"
         x="-590.43414"
         height="514.22888"
         width="972.75153"
         id="rect3183"
         style="fill:#077f58;fill-opacity:1;stroke:none" />
      <path
         sodipodi:nodetypes="ccccccccccssssccccccccccccccccccsccccccccccccccccccccccssccccccccc"
         id="path2396"
         d="m 113.71875,-64.875 209.96875,0 c 9.83495,0 17.75,8.162978 17.75,18.28125 l 0,324.09375 c 0,10.11827 -7.91504,18.25 -17.75,18.25 l -209.96875,0 c -9.83496,-2e-5 -17.75,-8.13173 -17.75,-18.25 l 0,-324.09375 c 0,-10.118274 7.91504,-18.28125 17.75,-18.28125 z M -358.5,-57.3125 c 8.51968,-0.1051 17.31742,2.812719 24.625,8.84375 15.58948,12.866199 18.51012,35.07939 6.53125,49.59375 -11.97886,14.51436 -34.348,15.834949 -49.9375,2.96875 -15.5895,-12.8661991 -18.51012,-35.07939 -6.53125,-49.59375 6.36378,-7.710753 15.65687,-11.693386 25.3125,-11.8125 z m 482.90625,6.6875 c -5.04508,0.255274 -8.25,4.308838 -8.25,9.40625 l 0,311.3125 c 0,5.82561 4.70564,12.26778 10.53125,10.5 l 78.96875,-19.1875 c 7.0883,-2.27284 10.53124,-4.67439 10.53125,-10.5 l 0,-269.65625 c 0,-5.825616 -5.21071,-9.016021 -10.53125,-10.53125 L 126.6875,-50.5 c -0.79134,-0.126269 -1.56052,-0.161468 -2.28125,-0.125 z M -417.6875,9.0625 c 5.44697,-0.037588 11.53276,0.4285499 17.53125,2.28125 L -360.8125,25.75 c 8.28703,2.969425 15.04176,6.753216 21.5625,13.15625 l 42.9375,45.65625 49.34375,1.46875 c 21.70785,0.532409 25.69366,30.15233 4.34375,36.40625 -2.54762,0.38204 -19.3768,0.491 -37.375,0.25 -40.56566,-0.5432 -38.05836,0.25436 -51.25,-16.40625 l -25.40625,-30.5 -11.59375,42.625 c -1.66125,5.73305 -0.64838,7.36123 1.0625,9.75 l 40.25,42.25 c 6.14799,8.03227 5.28772,17.8107 2.34375,26.9375 L -354.75,292.75 c -8.89248,32.57377 -52.69393,20.19161 -40.84375,-15.84375 l 24.75,-86.28125 -27.4375,-23.9375 -32.25,39.9375 c -5.63984,7.81889 -11.70119,13.58274 -34.46875,15.5625 l -72.125,7.125 c -23.43599,3.07316 -26.62251,-33.64623 -5.84375,-37.90625 l 67.875,-9.84375 42.625,-63.3125 2.1875,-62.5 -26.9375,14.28125 c -13.25731,6.81251 -13.30097,6.866618 -14.59375,13.9375 L -478,118.5 c -7.35012,32.67606 -43.40667,19.58095 -37.5625,-11.90625 l 8.59375,-52.1875 c 1.39881,-5.55683 -0.4275,-4.215821 22.75,-17.09375 6.325,-3.51431 20.39189,-11.040938 32.65625,-17.0625 12.36258,-6.069785 20.71778,-11.0125103 33.875,-11.1875 z M -65,77.375 67.59375,130.3125 -65,182.375 l 0,-30 -140,0 0,-45 140,0 0,-30 z"
         style="fill:#ffffff;fill-opacity:1"
         inkscape:connector-curvature="0" />
    </g>
  </g>
</svg>
